<mxfile host="app.diagrams.net" modified="2024-01-24T06:24:29.948Z" agent="Mozilla/5.0 (Macintosh; Intel Mac OS X 10_15_7) AppleWebKit/537.36 (KHTML, like Gecko) Chrome/120.0.0.0 Safari/537.36" etag="ACpnKa-epcALxmtbAwEN" version="22.1.21" type="github">
  <diagram name="第 1 页" id="zf5rkVIrOFzXrXctHy9U">
    <mxGraphModel dx="1184" dy="499" grid="1" gridSize="10" guides="1" tooltips="1" connect="1" arrows="1" fold="1" page="1" pageScale="1" pageWidth="827" pageHeight="1169" math="0" shadow="0">
      <root>
        <mxCell id="0" />
        <mxCell id="1" parent="0" />
        <mxCell id="XBwlamYOv69OCs9TW11--8" value="" style="edgeStyle=orthogonalEdgeStyle;rounded=0;orthogonalLoop=1;jettySize=auto;html=1;" edge="1" parent="1" source="XBwlamYOv69OCs9TW11--1" target="XBwlamYOv69OCs9TW11--5">
          <mxGeometry relative="1" as="geometry" />
        </mxCell>
        <mxCell id="XBwlamYOv69OCs9TW11--1" value="XhsApplication" style="swimlane;fontStyle=1;align=center;verticalAlign=top;childLayout=stackLayout;horizontal=1;startSize=26;horizontalStack=0;resizeParent=1;resizeParentMax=0;resizeLast=0;collapsible=1;marginBottom=0;whiteSpace=wrap;html=1;" vertex="1" parent="1">
          <mxGeometry x="10" y="100" width="220" height="120" as="geometry" />
        </mxCell>
        <mxCell id="XBwlamYOv69OCs9TW11--3" value="" style="line;strokeWidth=1;fillColor=none;align=left;verticalAlign=middle;spacingTop=-1;spacingLeft=3;spacingRight=3;rotatable=0;labelPosition=right;points=[];portConstraint=eastwest;strokeColor=inherit;" vertex="1" parent="XBwlamYOv69OCs9TW11--1">
          <mxGeometry y="26" width="220" height="8" as="geometry" />
        </mxCell>
        <mxCell id="XBwlamYOv69OCs9TW11--4" value="# onCreate()&lt;br&gt;-----------&amp;gt;&lt;br&gt;- startHomeFeedPreload()&lt;br&gt;-----------&amp;gt;&lt;br&gt;#&amp;nbsp;preloadInitializationByPrivacyCheck()" style="text;strokeColor=none;fillColor=none;align=left;verticalAlign=top;spacingLeft=4;spacingRight=4;overflow=hidden;rotatable=0;points=[[0,0.5],[1,0.5]];portConstraint=eastwest;whiteSpace=wrap;html=1;" vertex="1" parent="XBwlamYOv69OCs9TW11--1">
          <mxGeometry y="34" width="220" height="86" as="geometry" />
        </mxCell>
        <mxCell id="XBwlamYOv69OCs9TW11--12" value="" style="edgeStyle=orthogonalEdgeStyle;rounded=0;orthogonalLoop=1;jettySize=auto;html=1;" edge="1" parent="1" source="XBwlamYOv69OCs9TW11--5" target="XBwlamYOv69OCs9TW11--9">
          <mxGeometry relative="1" as="geometry" />
        </mxCell>
        <mxCell id="XBwlamYOv69OCs9TW11--5" value="ColdLauncherPreloadApplication" style="swimlane;fontStyle=1;align=center;verticalAlign=top;childLayout=stackLayout;horizontal=1;startSize=26;horizontalStack=0;resizeParent=1;resizeParentMax=0;resizeLast=0;collapsible=1;marginBottom=0;whiteSpace=wrap;html=1;" vertex="1" parent="1">
          <mxGeometry x="310" y="100" width="220" height="120" as="geometry" />
        </mxCell>
        <mxCell id="XBwlamYOv69OCs9TW11--6" value="" style="line;strokeWidth=1;fillColor=none;align=left;verticalAlign=middle;spacingTop=-1;spacingLeft=3;spacingRight=3;rotatable=0;labelPosition=right;points=[];portConstraint=eastwest;strokeColor=inherit;" vertex="1" parent="XBwlamYOv69OCs9TW11--5">
          <mxGeometry y="26" width="220" height="8" as="geometry" />
        </mxCell>
        <mxCell id="XBwlamYOv69OCs9TW11--7" value="# onCreate()&lt;br&gt;-------------&amp;gt;&lt;br&gt;-&amp;nbsp;startPreloadApplicationBoot()" style="text;strokeColor=none;fillColor=none;align=left;verticalAlign=top;spacingLeft=4;spacingRight=4;overflow=hidden;rotatable=0;points=[[0,0.5],[1,0.5]];portConstraint=eastwest;whiteSpace=wrap;html=1;" vertex="1" parent="XBwlamYOv69OCs9TW11--5">
          <mxGeometry y="34" width="220" height="86" as="geometry" />
        </mxCell>
        <mxCell id="XBwlamYOv69OCs9TW11--16" value="" style="edgeStyle=orthogonalEdgeStyle;rounded=0;orthogonalLoop=1;jettySize=auto;html=1;" edge="1" parent="1" source="XBwlamYOv69OCs9TW11--9" target="XBwlamYOv69OCs9TW11--13">
          <mxGeometry relative="1" as="geometry" />
        </mxCell>
        <mxCell id="XBwlamYOv69OCs9TW11--9" value="ColdLaunchPreLoadFactory" style="swimlane;fontStyle=1;align=center;verticalAlign=top;childLayout=stackLayout;horizontal=1;startSize=26;horizontalStack=0;resizeParent=1;resizeParentMax=0;resizeLast=0;collapsible=1;marginBottom=0;whiteSpace=wrap;html=1;" vertex="1" parent="1">
          <mxGeometry x="607" y="130" width="220" height="60" as="geometry" />
        </mxCell>
        <mxCell id="XBwlamYOv69OCs9TW11--10" value="" style="line;strokeWidth=1;fillColor=none;align=left;verticalAlign=middle;spacingTop=-1;spacingLeft=3;spacingRight=3;rotatable=0;labelPosition=right;points=[];portConstraint=eastwest;strokeColor=inherit;" vertex="1" parent="XBwlamYOv69OCs9TW11--9">
          <mxGeometry y="26" width="220" height="8" as="geometry" />
        </mxCell>
        <mxCell id="XBwlamYOv69OCs9TW11--11" value="#&amp;nbsp;initAsyncNetWork()" style="text;strokeColor=none;fillColor=none;align=left;verticalAlign=top;spacingLeft=4;spacingRight=4;overflow=hidden;rotatable=0;points=[[0,0.5],[1,0.5]];portConstraint=eastwest;whiteSpace=wrap;html=1;" vertex="1" parent="XBwlamYOv69OCs9TW11--9">
          <mxGeometry y="34" width="220" height="26" as="geometry" />
        </mxCell>
        <mxCell id="XBwlamYOv69OCs9TW11--13" value="XhsNetworkModule" style="swimlane;fontStyle=1;align=center;verticalAlign=top;childLayout=stackLayout;horizontal=1;startSize=26;horizontalStack=0;resizeParent=1;resizeParentMax=0;resizeLast=0;collapsible=1;marginBottom=0;whiteSpace=wrap;html=1;" vertex="1" parent="1">
          <mxGeometry x="607" y="270" width="220" height="110" as="geometry" />
        </mxCell>
        <mxCell id="XBwlamYOv69OCs9TW11--14" value="" style="line;strokeWidth=1;fillColor=none;align=left;verticalAlign=middle;spacingTop=-1;spacingLeft=3;spacingRight=3;rotatable=0;labelPosition=right;points=[];portConstraint=eastwest;strokeColor=inherit;" vertex="1" parent="XBwlamYOv69OCs9TW11--13">
          <mxGeometry y="26" width="220" height="8" as="geometry" />
        </mxCell>
        <mxCell id="XBwlamYOv69OCs9TW11--15" value="# preConnectBySpeedTest()&lt;br&gt;------------------&amp;gt;&lt;br&gt;# speedConnect():最终就是记录这个方法的耗时" style="text;strokeColor=none;fillColor=none;align=left;verticalAlign=top;spacingLeft=4;spacingRight=4;overflow=hidden;rotatable=0;points=[[0,0.5],[1,0.5]];portConstraint=eastwest;whiteSpace=wrap;html=1;" vertex="1" parent="XBwlamYOv69OCs9TW11--13">
          <mxGeometry y="34" width="220" height="76" as="geometry" />
        </mxCell>
      </root>
    </mxGraphModel>
  </diagram>
</mxfile>
